<?xml version="1.0" encoding="UTF-8" standalone="no"?>
<!-- Created with Inkscape (http://www.inkscape.org/) -->

<svg
   xmlns:dc="http://purl.org/dc/elements/1.1/"
   xmlns:cc="http://creativecommons.org/ns#"
   xmlns:rdf="http://www.w3.org/1999/02/22-rdf-syntax-ns#"
   xmlns:svg="http://www.w3.org/2000/svg"
   xmlns="http://www.w3.org/2000/svg"
   xmlns:sodipodi="http://sodipodi.sourceforge.net/DTD/sodipodi-0.dtd"
   xmlns:inkscape="http://www.inkscape.org/namespaces/inkscape"
   version="1.1"
   id="svg21"
   width="156"
   height="156"
   viewBox="0 0 156 156"
   sodipodi:docname="oscar.svg"
   inkscape:version="0.92.3 (2405546, 2018-03-11)">
  <metadata
     id="metadata27">
    <rdf:RDF>
      <cc:Work
         rdf:about="">
        <dc:format>image/svg+xml</dc:format>
        <dc:type
           rdf:resource="http://purl.org/dc/dcmitype/StillImage" />
        <dc:title></dc:title>
      </cc:Work>
    </rdf:RDF>
  </metadata>
  <defs
     id="defs25" />
  <sodipodi:namedview
     pagecolor="#ffffff"
     bordercolor="#666666"
     borderopacity="1"
     objecttolerance="10"
     gridtolerance="10"
     guidetolerance="10"
     inkscape:pageopacity="0"
     inkscape:pageshadow="2"
     inkscape:window-width="1366"
     inkscape:window-height="706"
     id="namedview23"
     showgrid="false"
     inkscape:zoom="1.5128205"
     inkscape:cx="78"
     inkscape:cy="78"
     inkscape:window-x="-32000"
     inkscape:window-y="-32000"
     inkscape:window-maximized="0"
     inkscape:current-layer="svg21" />
  <path
     style="fill:none"
     d="M 65.128077,154.57712 C 49.475867,151.60904 36.843437,145.26286 25.529657,134.684 17.001117,126.70946 10.077486,116.73283 6.3325561,107.02191 2.4959761,97.073325 -0.08615387,81.576287 0.75994613,73.577121 4.7826161,35.546583 28.507137,9.1578238 65.180667,1.9220244 c 10.38633,-2.04925397 11.8959,-2.11690897 20.41431,-0.91491 22.262433,3.141363 39.318743,12.2257606 52.268973,27.8390946 23.36268,28.167017 23.38523,70.268748 0.0527,98.397911 -17.89968,21.57945 -46.497903,32.31843 -72.788593,27.333 z m 31.66552,-4.07615 c 26.600343,-7.12118 47.031603,-27.70407 54.022913,-54.423849 3.15852,-12.07139 2.09924,-32.807209 -2.19664,-43 -2.89443,-6.867578 -6.38326,-14.147763 -7.33901,-15.314372 -0.53423,-0.652095 -3.02362,-3.77188 -5.53198,-6.932856 C 126.45379,19.116423 110.47634,9.0319058 95.446607,5.3922214 86.472217,3.2189314 69.777247,3.2378464 60.851377,5.4314114 32.680367,12.354557 11.873507,33.357709 5.3130561,61.493669 -4.2353339,102.4441 22.640787,143.72534 63.942767,151.54786 c 9.36396,1.77352 24.0656,1.30501 32.85083,-1.04689 z m -24.45416,-6.3382 c -1.35956,-2.54036 -4.5762,-2.72134 -5.96574,-0.33565 -0.56898,0.97688 -1.03271,1.19646 -1.04969,0.49705 -0.0167,-0.68912 1.29384,-3.38054 2.91236,-5.98093 3.13368,-5.0347 3.11885,-5.04226 5.07359,2.58482 1.2369,4.82621 0.7499,6.44935 -0.97052,3.23471 z m -1.04584,-5.14467 c 0,-1.13246 -0.45,-1.7809 -1,-1.44098 -1.29836,0.80243 -1.29836,3.5 0,3.5 0.55,0 1,-0.92656 1,-2.05902 z m 6,1.55902 c 0,-3.025 0.45,-5.5 1,-5.5 0.55,0 1,2.217 1,4.92668 0,3.85118 0.38203,5.0265 1.75,5.38399 1.07667,0.28137 0.6919,0.50196 -1,0.57333 -2.68072,0.11308 -2.75,-0.0226 -2.75,-5.384 z m 15.63926,-0.65401 c -0.91551,-2.83471 -1.47496,-5.34362 -1.24322,-5.57536 0.23174,-0.23174 0.72609,0.53879 1.09855,1.71231 0.46655,1.46996 1.35036,2.03744 2.8413,1.82434 1.67647,-0.23961 2.12169,-0.92875 1.97585,-3.0583 -0.24418,-3.56538 1.26003,-3.56463 2.03919,0.001 0.33051,1.5125 0.892993,3.875 1.249973,5.25 0.60659,2.33645 0.55477,2.3784 -0.79202,0.64126 -2.164093,-2.79131 -5.379723,-1.73826 -5.021033,1.64428 0.43626,4.11399 -0.30319,3.2744 -2.14859,-2.43955 z m -31.36266,1.65401 c 0.18131,-2.43479 -0.20167,-3.06036 -2.03279,-3.32036 -1.59836,-0.22696 -2.52748,0.35618 -3.18662,2 -1.51527,3.77892 -1.17728,-0.84889 0.41481,-5.67964 l 1.3183,-4 0.10485,3.25 c 0.0894,2.77204 0.47252,3.25 2.60485,3.25 1.83334,0 2.5,-0.53333 2.5,-2 0,-1.1 0.45858,-2 1.01906,-2 1.15946,0 0.40568,3.93248 -1.62928,8.5 l -1.33659,3 z m -16.62161,-3.32874 c -0.91024,-1.00581 -1.65499,-2.80581 -1.65499,-4 0,-2.52294 3.29036,-6.17126 5.56574,-6.17126 2.62204,0 5.43602,1.97108 5.40385,3.78518 -0.0283,1.59782 -0.1,1.59542 -1.04969,-0.0352 -0.5853,-1.00488 -2.20709,-1.74998 -3.80907,-1.74998 -5.81579,0 -5.68573,8.17039 0.14797,9.29542 2.02255,0.39005 1.98804,0.4455 -0.35381,0.5684 -1.42726,0.0749 -3.33976,-0.68675 -4.25,-1.69256 z m 58.857553,-2.15139 c -3.02061,-4.78495 -3.09137,-5.63972 -0.57828,-6.98469 2.80063,-1.49885 3.8828,-1.21167 1.69031,0.44858 -2.57884,1.95281 -1.40952,4.86613 1.6205,4.03744 1.90383,-0.52068 1.98892,-0.44944 0.54646,0.4575 -2.63549,1.65706 -1.09052,4.29867 2.09401,3.58035 2.49665,-0.56315 2.52699,-0.52144 0.67333,0.92561 -2.77352,2.16515 -3.24487,1.973 -6.04633,-2.46479 z m 7.14549,-5.26987 c -2.35424,-3.93135 -2.41863,-4.34655 -0.8588,-5.53774 2.81442,-2.14929 5.65731,-1.09423 6.03674,2.24036 0.18479,1.62395 1.08479,3.53907 2,4.25583 1.40794,1.10265 1.21946,1.14411 -1.22466,0.2694 -3.39136,-1.2137 -4.40362,-0.63745 -2.63137,1.49798 0.72831,0.87756 0.83184,1.52417 0.24405,1.52417 -0.5615,0 -2.16618,-1.9125 -3.56596,-4.25 z m 4.15439,-3.01451 c 0.38455,-1.99679 -2.46737,-3.48054 -3.91242,-2.03549 -1.39942,1.39942 0.0679,4.45283 1.96434,4.08761 0.88698,-0.17082 1.76362,-1.09427 1.94808,-2.05212 z m -79.210803,4.76396 c -2.05742,-1.55731 -2.19612,-1.20491 3.04138,-7.72719 l 2.19042,-2.72774 2.33329,1.94447 c 1.28331,1.06946 1.79735,1.95944 1.14231,1.97774 -0.65504,0.0183 -1.4826,-0.43858 -1.83903,-1.01529 -0.44165,-0.71461 -1.10545,-0.66894 -2.08424,0.14338 -1.23976,1.02891 -1.20638,1.44589 0.24401,3.04856 1.82771,2.01959 0.52944,2.61582 -1.42976,0.65662 -1.99873,-1.99874 -4.00588,0.67993 -2.41648,3.22496 1.45432,2.32873 1.33243,2.37766 -1.1819,0.47449 z m 25.17009,-4.78595 c -8.45502,-2.95456 -16.66557,-8.56489 -22.14227,-15.12998 -9.48776,-11.37327 -11.96724,-18.285349 -12.047,-33.583519 -0.0709,-13.593328 1.48772,-19.734925 7.24454,-28.54678 15.37918,-23.540651 44.0188,-31.151034 69.266373,-18.406099 11.29958,5.704012 22.62864,19.919603 25.86319,32.452879 1.52737,5.918266 1.26732,23.190869 -0.43355,28.796588 -4.22265,13.916961 -14.88286,26.123501 -28.43459,32.559191 -7.229223,3.43314 -8.079133,3.59818 -20.068663,3.89692 -11.05879,0.27556 -13.30487,0.0376 -19.24803,-2.0392 z m 14.24124,-19.76748 c 0.66684,-2.77968 0.9814,-5.28501 0.69903,-5.56738 -0.28238,-0.28238 -0.82264,1.31691 -1.20059,3.55398 -0.66999,3.96561 -2.51139,5.72587 -2.51139,2.40071 0,-0.91666 -0.2469,-1.41976 -0.54866,-1.118 -0.76383,0.76383 0.58787,5.78467 1.55733,5.78467 0.43552,0 1.33745,-2.27429 2.00428,-5.05398 z m 6.32539,-3.24853 c -0.33001,-2.03362 -1.02147,-3.69749 -1.53657,-3.69749 -0.5151,0 -0.68086,0.90212 -0.36837,2.0047 0.31249,1.10259 0.83391,2.9365 1.15869,4.07536 0.92628,3.24799 1.40957,1.70499 0.74625,-2.38257 z m -10.73417,-1.42666 c -0.33229,-0.33229 -0.56864,0.25834 -0.52522,1.3125 0.048,1.16495 0.28494,1.4019 0.60417,0.60417 0.28887,-0.72187 0.25334,-1.58437 -0.0789,-1.91667 z m 3.89583,-3.767163 c 11.52878,-1.906466 16.45743,-3.449897 25.404343,-7.955489 8.1049,-4.081567 16.0356,-11.308292 16.21081,-14.771861 0.42315,-8.364448 -3.14901,-11.387822 -14.73294,-12.469545 -6.489123,-0.605965 -6.557663,-0.586357 -6.221803,1.780042 0.20959,1.476797 1.1052,2.507272 2.33959,2.691906 5.881143,0.879673 6.629383,1.295167 6.314923,3.506627 -0.448,3.15052 -7.992663,7.856474 -17.918443,11.176559 -8.56669,2.86548 -25.6478,4.570277 -31.37908,3.131818 -3.95014,-0.991422 -3.18543,-4.164067 1.86105,-7.721152 3.20272,-2.257486 4.2455,-3.594581 3.88337,-4.979392 -0.27229,-1.041249 -0.85178,-1.893179 -1.28775,-1.893179 -0.43597,0 -3.63832,1.9125 -7.11632,4.25 -14.55986,9.785387 -14.27867,19.525181 0.66801,23.138946 7.80718,1.887593 11.14787,1.905033 21.97424,0.11472 z m -0.48468,-15.253666 c 0.0132,-1.508553 0.1602,-1.543046 1.0655,-0.25 0.85418,1.220034 0.95351,1.126712 0.53218,-0.5 -0.28491,-1.1 -0.82644,-3.35 -1.2034,-5 -0.37695,-1.65 -0.99467,-3.45 -1.37271,-4 -0.37803,-0.55 -2.00348,-6.735437 -3.61211,-13.745416 -1.60863,-7.009979 -3.26228,-12.747479 -3.67478,-12.75 -1.2291,-0.0075 -0.86496,2.716673 1.17321,8.776961 2.30603,6.856717 5.27305,19.355527 4.72485,19.903734 -0.21524,0.215233 -0.91649,-1.763405 -1.55835,-4.396973 -2.042,-8.378396 -5.56673,-19.273868 -6.23756,-19.281213 -0.65485,-0.0072 2.0634,11.708638 4.63866,19.992907 0.76938,2.475 1.89104,6.4125 2.49258,8.75 1.09125,4.240462 3.0029,5.816733 3.03193,2.5 z m -9.15486,-3 c -1.45622,-5.581736 -1.93716,-6.246725 -1.27118,-1.757616 0.57281,3.861034 1.13759,5.507616 1.88913,5.507616 0.19821,0 -0.0799,-1.6875 -0.61795,-3.75 z m 27.61975,-8.996496 c 0.92538,-4.264427 2.54591,-10.613405 3.60116,-14.108839 2.03711,-6.747795 2.41738,-10.144665 1.13564,-10.144665 -0.43065,0 -1.38365,3.247794 -2.11779,7.21732 -0.73414,3.969526 -2.4068,10.798827 -3.71701,15.176225 -2.5477,8.511803 -2.91884,11.05615 -1.48337,10.168976 0.49436,-0.305533 1.65598,-4.04459 2.58137,-8.309017 z m -31.37918,-5.706396 c -1.09996,-3.129588 -2.29877,-7.682974 -2.66402,-10.118634 -0.36525,-2.435661 -1.063,-4.428474 -1.55055,-4.428474 -1.17199,0 -1.14603,0.258999 0.68622,6.846093 3.80325,13.673004 4.79054,16.554165 5.14778,15.022541 0.20927,-0.897251 -0.51947,-4.191938 -1.61943,-7.321526 z m 57.636283,58.869261 c -4.42565,-4.19462 -4.09638,-5.88217 0.75241,-3.85622 5.20443,2.17455 5.7343,1.79928 3.53804,-2.50573 -2.80467,-5.49761 -0.81409,-6.22815 4.04415,-1.4842 2.14026,2.0899 3.66994,4.02126 3.3993,4.2919 -0.27064,0.27064 -1.83738,-0.79681 -3.48164,-2.37211 -3.28556,-3.14777 -4.17902,-1.6332 -1.38757,2.35215 2.09225,2.98711 1.19547,3.7308 -2.602,2.15784 -4.19103,-1.73598 -4.82068,-0.62131 -1.36538,2.41712 1.57596,1.38582 2.41538,2.52999 1.86538,2.5426 -0.55,0.0126 -2.69321,-1.58189 -4.76269,-3.54335 z m -87.673923,0.33363 c -0.0684,-2.96625 -0.96291,-3.45048 -2.86339,-1.55 -2.41658,2.41658 -1.1115,-0.4274 1.93681,-4.22061 2.53934,-3.15987 3.47878,-3.72031 4.93227,-2.94242 3.71355,1.98743 3.00108,8.9714 -0.76768,7.52519 -0.80812,-0.3101 -1.7497,0.39492 -2.2764,1.70449 -0.85869,2.13505 -0.90101,2.11231 -0.96161,-0.51665 z m 4.93661,-4.58333 c 0,-2.78932 -1.14301,-3.34722 -3.14526,-1.5352 -2.09879,1.89937 -1.57356,3.36853 1.20428,3.36853 1.2155,0 1.94098,-0.68525 1.94098,-1.83333 z m -11.76821,-1.10739 c 0.21273,-2.72896 -0.20474,-3.68267 -2.01809,-4.61031 -2.12146,-1.08527 -1.90517,-1.24523 3,-2.21863 2.90747,-0.57697 5.47448,-0.86415 5.70448,-0.63818 0.57702,0.56692 -1.55319,4.31214 -4.49782,7.90784 l -2.45679,3 z m 4.12984,-4.55928 c 0.34388,-0.89614 0.008,-1.5 -0.83399,-1.5 -1.64471,0 -2.75941,1.43489 -1.83378,2.36052 1.0538,1.0538 2.0574,0.73007 2.66777,-0.86052 z m 99.884693,-1.06833 c -3.61565,-2.16702 -4.10232,-2.83222 -3.24462,-4.43485 0.55498,-1.03699 1.50153,-2.1898 2.10345,-2.5618 0.7845,-0.48486 0.79624,-0.11927 0.0414,1.29111 -1.52304,2.84583 0.58816,4.82391 2.90792,2.72456 1.53957,-1.3933 1.64081,-1.30758 1.19708,1.01365 -0.53609,2.80437 1.35122,3.46094 3.69561,1.28566 1.10223,-1.02272 1.22951,-0.91694 0.7,0.58179 -0.35595,1.00748 -0.64718,2.01998 -0.64718,2.25 0,1.0851 -2.89183,0.16445 -6.75368,-2.15012 z M 22.043597,110.67488 c 1.7875,-0.82567 3.25,-1.97294 3.25,-2.54949 0,-0.57655 0.9,-1.04827 2,-1.04827 1.1,0 2,0.46114 2,1.02475 0,1.0907 -3.34566,2.60028 -7.7941,3.51675 -2.41517,0.49758 -2.35671,0.39618 0.5441,-0.94374 z M 135.2936,109.07712 c 0,-0.55 0.675,-1 1.5,-1 1.65853,0 2.05371,-2.53976 0.54068,-3.47486 -0.52763,-0.32609 -1.81802,-0.0566 -2.86754,0.5988 -2.47091,1.54312 -5.17314,0.48088 -5.17314,-2.03354 0,-2.15791 1.72945,-3.725923 2.81653,-2.55363 0.37591,0.40537 0.12097,0.93793 -0.56653,1.18347 -1.49089,0.53246 -1.68894,3.27976 -0.23643,3.27976 0.55746,0 1.84785,-0.52102 2.86753,-1.15782 3.80385,-2.37554 8.16573,2.18797 4.59025,4.80243 -2.19638,1.60603 -3.47135,1.73656 -3.47135,0.35539 z M 17.293597,107.1497 c 0,-0.51008 1.1937,-1.86638 2.65267,-3.014 3.1881,-2.50776 2.39788,-3.85827 -1.27767,-2.18358 -1.4484,0.65993 -2.86271,0.97062 -3.14291,0.69042 -0.28021,-0.28021 0.79045,-1.01483 2.37923,-1.63249 1.58877,-0.61767 3.90118,-1.519123 5.13868,-2.003233 3.16284,-1.237296 3.00645,1.425803 -0.25,4.257253 -3.08631,2.68351 -3.1391,3.55085 -0.25,4.10732 1.39283,0.26827 0.82138,0.48525 -1.5,0.56955 -2.0625,0.0749 -3.75,-0.28116 -3.75,-0.79124 z M 8.3703261,89.488227 c -2.5881,-2.177743 -3.07673,-3.296653 -3.07673,-7.045454 0,-5.896088 3.23484,-9.365652 8.7320409,-9.365652 4.81163,0 7.80373,2.063336 9.22145,6.359059 1.36855,4.146752 0.22428,7.569351 -3.51367,10.509618 -3.62435,2.85092 -7.62251,2.689922 -11.3630909,-0.457571 z M 19.543597,86.879441 c 2.37714,-2.749173 2.20073,-6.693636 -0.42431,-9.487869 -5.68053,-6.046645 -14.7410209,1.369686 -10.7603109,8.807697 2.2147109,4.138229 7.8958109,4.483714 11.1846209,0.680172 z m 116.055763,2.784264 c -2.32979,-2.004003 -2.80576,-3.206177 -2.80576,-7.086584 0,-3.927731 0.46748,-5.075279 2.93067,-7.19402 2.42841,-2.088835 3.62779,-2.427349 6.99843,-1.975251 8.05597,1.080532 11.23047,9.355106 5.98201,15.592546 -3.36091,3.994206 -8.90663,4.274895 -13.10535,0.663309 z m 11.23969,-2.041129 c 3.89426,-3.89426 2.92712,-8.635224 -2.33322,-11.437511 -4.5805,-2.440121 -9.21223,1.032476 -9.21223,6.906781 0,6.661908 6.76106,9.315121 11.54545,4.53073 z M 19.293597,69.299362 c 0,-0.427768 0.93032,-1.57432 2.06737,-2.547895 2.29696,-1.966714 2.17519,-3.494816 -0.40663,-5.102903 -1.41539,-0.881582 -2.30289,-0.379631 -5.00841,2.832661 -2.78702,3.309051 -3.69466,3.802086 -5.9550309,3.23477 -4.18557,-1.050512 -5.04132,-7.802158 -1.17685,-9.285094 2.3817009,-0.913943 3.0753909,0.490048 0.99407,2.011945 -2.27907,1.666495 -1.3704,4.634275 1.4189109,4.634275 1.09792,0 2.52941,-1.0125 3.18109,-2.25 1.49061,-2.830542 2.80879,-3.715321 5.56405,-3.734687 4.78787,-0.03365 7.07836,6.084719 3.49269,9.329699 -1.91464,1.732727 -4.17126,2.2073 -4.17126,0.877229 z M 132.2936,69.219572 c 0,-0.860059 9.3655,-2.142451 15.64669,-2.142451 4.22531,0 4.37392,1.545879 0.22831,2.375 -4.61834,0.923667 -15.875,0.758775 -15.875,-0.232544 z m -1.31607,-3.844858 c -0.3601,-0.582641 0.68871,-2.749831 2.33068,-4.815978 1.64196,-2.066141 2.98539,-3.925065 2.98539,-4.130937 0,-0.205872 -1.8,-0.08648 -4,0.265313 -2.46659,0.394423 -4,0.249273 -4,-0.378633 0,-1.220116 15.62419,-5.595546 17.46233,-4.890186 1.79963,0.69058 2.84908,7.202444 1.55149,9.627006 -1.66433,3.109825 -5.78745,3.696632 -8.30247,1.181616 l -2.10669,-2.106691 -2.63301,3.153922 c -1.56437,1.873861 -2.89874,2.723971 -3.28772,2.094573 z m 13.80215,-4.926537 c 0.89592,-0.895916 1.37806,-2.282721 1.07143,-3.081787 -0.30663,-0.799062 -0.55751,-2.099613 -0.55751,-2.890108 0,-1.057187 -0.72723,-1.267173 -2.75,-0.794063 -4.75946,1.113198 -5.62344,2.650429 -3.21239,5.715586 2.45166,3.116785 3.23169,3.267161 5.44847,1.050377 z M 17.479477,52.580069 c -1.63217,-1.373378 -3.24932,-3.619589 -3.59367,-4.991579 -0.86018,-3.427252 1.55044,-8.718402 4.75165,-10.429542 3.93574,-2.103764 4.37575,-0.556458 0.79339,2.789964 -5.50354,5.141077 -3.27819,12.128209 3.86275,12.128209 4.65712,0 7,-2.651641 7,-7.922506 0,-2.430657 0.31636,-3.161134 1.05092,-2.426575 2.71089,2.710883 0.90267,9.804604 -3.01574,11.830892 -4.20405,2.173997 -7.45044,1.881096 -10.8493,-0.978863 z M 125.2936,50.077121 c -2.46599,-2.465994 -2.56886,-6.106151 -0.25,-8.846575 5.98237,-7.069942 16.01722,1.023096 10.6933,8.624069 -2.03506,2.905444 -7.64092,3.024883 -10.4433,0.222506 z m 7.77749,-0.556704 c 2.4485,-1.714995 3.01156,-6.254251 1.02251,-8.243296 -3.02429,-3.024294 -8.8,-0.19241 -8.8,4.314725 0,2.012867 3.16521,5.485275 5,5.485275 0.30524,0 1.55512,-0.700517 2.77749,-1.556704 z m -15.03706,-7.693296 c -0.23442,-0.6875 0.43441,-4.305998 1.4863,-8.041107 1.05189,-3.735109 1.7687,-7.192017 1.5929,-7.682017 -0.1758,-0.490001 -2.54989,1.162721 -5.27576,3.672714 -3.16107,2.910726 -5.11094,4.099213 -5.38354,3.281394 -0.56188,-1.685642 12.05882,-13.074273 13.23754,-11.945252 0.52783,0.505573 0.18337,3.799783 -0.8358,7.993008 -0.95352,3.923145 -1.49116,7.375507 -1.19475,7.671917 0.29641,0.296409 2.47252,-1.310129 4.8358,-3.570086 4.23813,-4.052836 5.79688,-4.937249 5.79688,-3.289078 0,0.874469 -12.44424,13.158507 -13.33011,13.158507 -0.27677,0 -0.69503,-0.5625 -0.92946,-1.25 z M 34.870397,40.970249 c -3.7085,-10.985773 -5.31465,-18.056492 -4.19889,-18.48465 0.68762,-0.263866 4.8214,1.63919 9.18616,4.229014 9.47967,5.624744 8.91979,5.211985 8.13466,5.99711 -0.34903,0.349031 -1.95768,0.08656 -3.57477,-0.58326 -2.48402,-1.028913 -3.3521,-0.94796 -5.59521,0.521782 -2.12044,1.389361 -2.59796,2.402091 -2.37159,5.029623 0.29735,3.45129 -0.77345,5.680726 -1.58036,3.290381 z m 3.00499,-9.893128 c 1.29562,0 0.10517,-2.714405 -1.67917,-3.828741 -2.63588,-1.646139 -3.17815,-1.117268 -2.32791,2.270386 0.45146,1.798753 1.15075,2.49395 2.13046,2.117999 0.80212,-0.307804 1.6466,-0.559644 1.87662,-0.559644 z m 8.54209,-8.096747 -3.96961,-8.403253 3.17287,-1.708084 c 4.56688,-2.458539 7.34796,-2.217413 9.33095,0.809013 1.39749,2.132839 1.50188,3.13693 0.58002,5.579205 -1.0431,2.763494 -0.91239,3.098768 1.81254,4.649071 2.94922,1.677912 3.84826,3.170795 1.90952,3.170795 -0.57192,0 -2.80399,-0.9 -4.96017,-2 -5.13717,-2.62079 -5.33862,-2.55551 -3.44058,1.114902 1.11352,2.1533 1.29023,3.435451 0.57243,4.153253 -0.7178,0.717802 -2.26381,-1.555817 -5.00797,-7.364902 z m 4.94186,-1.938437 c 2.28183,-1.221197 2.66403,-6.4708 0.53072,-7.28943 -2.10547,-0.807941 -5.59646,0.37363 -5.59646,1.894192 0,1.490908 2.09417,6.430422 2.72626,6.430422 0.22287,0 1.27564,-0.465833 2.33948,-1.035184 z m 50.205133,8.058838 c -2.380003,-1.451145 -3.053703,-2.436244 -2.562033,-3.746262 0.8701,-2.318265 6.350873,-12.543577 7.279653,-13.581397 0.77844,-0.86984 7.94642,2.319758 7.98691,3.554005 0.0356,1.084375 -1.78652,0.921454 -4.21198,-0.376612 -1.71934,-0.920163 -2.34866,-0.793516 -3.43425,0.69113 -1.89901,2.597045 -1.69562,3.242027 1.66724,5.287104 3.66945,2.231528 2.8223,3.623112 -1.00178,1.645599 -2.46714,-1.275805 -2.91954,-1.237671 -4.37322,0.368623 -2.35761,2.605133 -2.01009,3.80301 1.4536,5.010459 1.69125,0.589574 2.78969,1.533595 2.44098,2.097825 -0.88006,1.423974 -1.54987,1.302597 -5.24512,-0.950474 z M 90.910047,24.265529 c -0.34846,-0.563815 0.0453,-3.631403 0.875,-6.816862 1.83521,-7.045865 1.88941,-9.0688607 0.25855,-9.6513082 -2.8553,-1.0197504 0.56227,-1.9958704 4.0078,-1.1446994 3.37228,0.8330779 4.769643,2.7335304 2.2422,3.0494614 -0.55,0.06875 -1.39904,0.18125 -1.88677,0.25 -0.48772,0.06875 -1.4233,2.9685082 -2.07906,6.4439072 -1.31188,6.952732 -2.4148,9.492263 -3.41772,7.869501 z"
     id="path33"
     inkscape:connector-curvature="0" />
</svg>
